<svg height="136" viewBox="0 0 438 136" width="438" xmlns="http://www.w3.org/2000/svg"><path d="m195.476 7.313-2.392 6.579c-5.642-3.71-11.944-5.661-17.545-5.658-9.853-.049-16.726 7.429-16.726 18.703 0 11.203 6.892 18.757 16.767 18.758 5.592 0 11.941-2.026 17.604-5.76l2.388 6.558c-6.282 4.847-13.771 7.379-20.303 7.38-15.533 0-25.784-12.04-25.784-26.937 0-14.999 10.251-27.017 25.784-26.937 6.559.001 13.935 2.492 20.207 7.314z"/><path d="m237.679 52.841h-32.782v-51.804h9.029v44.285h23.753z"/><path d="m282.723 52.841h-36.121v-51.804h35.382v7.519h-26.353v13.398h23.467v7.519h-23.467v15.849h27.092z"/><path d="m330.973 52.841-4.06-11.09h-23.013l-4.059 11.09h-9.669l20.204-51.804h10.06l20.205 51.804zm-6.757-18.609-8.81-23.951-8.81 23.951z"/><path d="m356.883 32.683v20.158h-9.028v-51.804h9.028 14.897c8.289 0 15.243 6.291 15.188 15.822 0 7.386-4.119 12.776-9.771 14.867l12.384 21.114h-10.423l-10.665-20.158zm14.501-7.509c3.546 0 6.566-2.945 6.566-8.342.031-5.304-2.992-8.276-6.565-8.276h-14.502v16.618z"/><path d="m205.791 134.466h-11.24l-.826-4.665c-5.287 3.937-10.908 5.832-16.699 5.83-16.091.003-27.646-13.537-27.667-30.158.021-17.11 12.338-30.651 30.449-30.624 8.426.001 16.644 2.985 23.912 8.557l-3.668 10.08c-6.312-3.92-13.158-6.008-19.122-6.008-9.439-.02-16.521 5.86-16.533 17.976.013 11.793 6.719 17.68 15.088 17.553 3.756-.048 8.11-1.197 12.5-3.439v-7.089h-9.188v-11.71h22.995v33.697z"/><path d="m232.132 118.437c0 4.412 1.882 6.223 4.824 6.206 1.035-.006 2.226-.267 3.555-.756l3.165 8.655c-3.907 1.956-8.09 3.09-11.895 3.088-7.472 0-13.637-4.238-13.637-14.894v-44.718h13.987v42.419z"/><path d="m293.99 113.591c0 12.19-9.082 22.043-23.076 22.043-13.901 0-23.076-9.853-23.076-22.043 0-12.273 9.175-22.126 23.076-22.043 13.994 0 23.076 9.853 23.076 22.043zm-23.076-10.42c-5.647 0-9.083 4.309-9.024 10.421 0 6.113 3.493 10.422 9.024 10.422 5.589 0 9.024-4.251 9.024-10.422 0-6.172-3.435-10.422-9.024-10.421z"/><path d="m348.092 113.591c.001 12.274-7.41 22.043-18.098 22.043-4.545 0-9.107-1.774-13.052-5.339v4.17h-13.987v-58.447h13.987v20.87c3.903-3.52 8.556-5.34 12.81-5.34 10.992-.063 18.331 9.77 18.34 22.043zm-14.041 0c.039-6.241-2.814-10.64-7.61-10.64-3 0-6.59 1.419-9.498 4.258v12.764c2.908 2.84 6.498 4.259 9.498 4.259 4.796 0 7.649-4.4 7.61-10.641z"/><path d="m400.842 134.465h-13.987v-4.142c-4.085 3.684-8.721 5.311-13.085 5.311-10.604 0-18.035-9.769-18.035-22.043 0-12.273 7.432-22.043 18.035-22.043 4.364 0 9 1.628 13.085 5.312v-4.143h13.987zm-13.987-14.459v-12.83c-2.879-2.815-6.557-4.216-9.395-4.225-4.687.009-7.658 4.16-7.658 10.64s2.782 10.631 7.658 10.641c2.838-.01 6.516-1.41 9.395-4.226z"/><path d="m425.609 118.437c0 4.412 1.882 6.223 4.824 6.206 1.034-.006 2.226-.267 3.555-.756l3.165 8.655c-3.907 1.956-8.09 3.09-11.895 3.088-7.472 0-13.637-4.238-13.637-14.894v-44.718h13.987v42.419z"/><g fill="#143878"><path d="m49.567 23.936c6.347 0 11.493-5.325 11.493-11.895s-5.146-11.895-11.493-11.895-11.494 5.325-11.494 11.895 5.146 11.895 11.494 11.895z"/><path d="m92.385 128.362c-9.966-20.785-19.151-37.978-30.278-55.04-1.047-1.606-1.071-3.669-.055-5.294 7.307-11.685 12.668-21.957 16.518-30.24 2.36-5.079-4.225-9.532-8.051-5.443-4.773 5.101-10.33 11.289-16.349 18.455-2.061 2.454-5.879 2.31-7.76-.285-14.49-19.992-28.008-35.928-37.81-46.778-3.692-4.086-10.272.047-8.208 5.152 6.015 14.88 16.413 36.608 33.563 62.285 1.138 1.704 1.095 3.943-.111 5.6-10.671 14.663-21.654 31.556-31.616 50.242-2.655 4.979 3.844 9.789 7.825 5.79 13.073-13.132 24.04-25.871 33.222-37.817 1.961-2.551 5.815-2.553 7.778-.003 10.037 13.043 19.774 24.826 33.351 38.933 3.879 4.032 10.4-.512 7.981-5.557z"/></g></svg>